<svg version="1.1" viewBox="0.0 0.0 940.8005249343832 226.55905511811022" fill="none" stroke="none" stroke-linecap="square" stroke-miterlimit="10" xmlns:xlink="http://www.w3.org/1999/xlink" xmlns="http://www.w3.org/2000/svg"><clipPath id="p.0"><path d="m0 0l940.80054 0l0 226.55905l-940.80054 0l0 -226.55905z" clip-rule="nonzero"/></clipPath><g clip-path="url(#p.0)"><path fill="#000000" fill-opacity="0.0" d="m0 0l940.80054 0l0 226.55905l-940.80054 0z" fill-rule="evenodd"/><path fill="#004225" d="m57.783073 18.238771l17.889763 -18.015749l17.889763 18.015749l-17.889763 18.015749z" fill-rule="evenodd"/><path fill="#004225" d="m133.85693 208.32083l17.889755 -18.015747l17.88977 18.015747l-17.88977 18.015747z" fill-rule="evenodd"/><path fill="#004225" d="m1.3052433 152.61665l17.889765 -18.015747l17.889763 18.015747l-17.889763 18.015747z" fill-rule="evenodd"/><path fill="#004225" d="m192.12343 75.11579l17.88977 -18.015747l17.889755 18.015747l-17.889755 18.015747z" fill-rule="evenodd"/><path fill="#004225" d="m134.06204 94.592545l17.889755 -18.015747l75.93701 75.81102l-17.889755 18.015747z" fill-rule="evenodd"/><path fill="#004225" d="m-0.2839903 75.11605l17.889765 -18.015747l75.937004 75.81103l-17.889763 18.015747z" fill-rule="evenodd"/><path fill="#004225" d="m151.81554 0.2894966l17.889755 18.015747l-75.937004 75.81103l-17.889763 -18.015755z" fill-rule="evenodd"/><path fill="#004225" d="m133.80692 132.34152l17.88977 18.015747l-75.93701 75.811035l-17.889763 -18.015747z" fill-rule="evenodd"/><path fill="#004225" d="m362.08493 104.07019c4.0230103 0 7.506592 0.91218567 10.450775 2.7365417c2.9441528 1.8141708 5.2127686 4.3162994 6.805847 7.506378c1.4114685 2.826439 2.1976624 6.0369034 2.358551 9.631409l-39.744232 0c0.24414062 -3.4278488 1.0705566 -6.5109177 2.4792175 -9.249207c1.7039795 -3.3225784 4.073395 -5.9215317 7.1083374 -7.796852c3.0348816 -1.8855133 6.548706 -2.82827 10.541504 -2.82827zm-94.41614 -23.849197l0 3.9442902l7.4410706 0l27.601501 66.68602l4.824585 0l27.601532 -66.68602l7.425934 0l0 -3.9442902l-30.051636 0l0 3.9442902l18.43631 0l-25.56366 61.70215l-0.23458862 0l-25.57837 -61.70215l18.43628 0l0 -3.9442902zm94.41614 20.103653c-4.859894 0 -9.109772 1.1058273 -12.749634 3.317482c-3.639862 2.2014618 -6.4781494 5.243767 -8.514862 9.126907c-2.0266418 3.883133 -3.0399475 8.342117 -3.0399475 13.3769455c0 5.01445 1.0133057 9.432663 3.0399475 13.254654c2.0366821 3.811798 4.8951416 6.8082275 8.575348 8.989304c3.6903076 2.1708984 8.010742 3.2563324 12.961365 3.2563324c5.243042 0 9.835754 -1.2586975 13.778076 -3.776123c3.9524536 -2.5174103 6.886505 -5.9521027 8.802246 -10.304062l-3.902008 -1.5135193c-1.6031799 3.6691132 -4.0431824 6.5534363 -7.320099 8.652985c-3.2667847 2.0893555 -7.067993 3.1340332 -11.403564 3.1340332c-4.1137695 0 -7.698181 -0.91218567 -10.753265 -2.7365417c-3.044983 -1.8345642 -5.419464 -4.3876495 -7.1234436 -7.6592712c-1.5515747 -2.9789886 -2.396759 -6.367813 -2.535553 -10.166481l43.884888 0c0 -0.19364166 0.0050354004 -0.422966 0.015106201 -0.68795776c0.02017212 -0.26499176 0.030273438 -0.5707474 0.030273438 -0.9172745c0 -4.9736786 -0.97805786 -9.3613205 -2.934082 -13.162918c-1.9459839 -3.811798 -4.6935425 -6.792946 -8.242645 -8.943451c-3.5491333 -2.160698 -7.7385254 -3.241043 -12.568146 -3.241043z" fill-rule="evenodd"/><path fill="#004225" d="m427.2711 100.462234c-3.226471 0 -6.009308 0.71343994 -8.348511 2.1403122c-2.329132 1.416687 -4.2095337 3.3480606 -5.6412964 5.794136c-1.4216614 2.4460678 -2.3795166 5.2029953 -2.8735962 8.270775l-0.24197388 0l0 -15.456116l-15.003113 0l0 3.5620956l10.919586 0l0 42.515778l-10.919586 0l0 3.562088l25.363129 0l0 -3.562088l-10.360016 0l0 -19.966057c0 -6.9814987 1.5073853 -12.449486 4.5220947 -16.403969c3.0248413 -3.9646683 7.0629883 -5.947006 12.114441 -5.947006c0.8066101 0 1.4821472 0.040763855 2.0266113 0.122299194c0.5444641 0.07134247 1.0486145 0.16816711 1.5124207 0.29047394l0 -4.647537c-0.56463623 -0.09172821 -1.073822 -0.15797424 -1.5275269 -0.19874573c-0.44363403 -0.050956726 -0.9578552 -0.076438904 -1.5426636 -0.076438904z" fill-rule="evenodd"/><path fill="#004225" d="m447.06235 82.05555l0 6.145752l5.898407 0l0 -6.145752zm-9.573578 19.155792l0 3.5620956l10.738129 0l0 42.515778l-10.738129 0l0 3.562088l24.954803 0l0 -3.562088l-10.133148 0l0 -46.077873z" fill-rule="evenodd"/><path fill="#004225" d="m476.9311 88.52235l0 12.688995l-9.422333 0l0 3.5620956l9.422333 0l-0.09072876 33.159546c0 2.8843231 0.4234619 5.3507843 1.2704163 7.3993683c0.85702515 2.048584 2.1526794 3.6130524 3.8869019 4.693405c1.7342224 1.0803375 3.982666 1.6205139 6.7453613 1.6205139c2.6013489 0 4.7691345 -0.52996826 6.503357 -1.5899353c1.7342224 -1.0701599 3.034912 -2.6295319 3.902008 -4.678116c0.86712646 -2.048584 1.3006897 -4.5303345 1.3006897 -7.445236l0 -4.3570557l-3.8112793 0l0 4.3570557c0 3.1595154 -0.6503296 5.595398 -1.9510193 7.3076477c-1.3006592 1.7020569 -3.2668152 2.5530853 -5.898407 2.5530853c-2.7324219 0 -4.723755 -0.8408356 -5.9740295 -2.5225067c-1.2502441 -1.691864 -1.8753662 -4.1379395 -1.8753662 -7.3382263l0.09072876 -33.159546l18.950531 0l0 -3.5620956l-18.950531 0l0 -12.688995z" fill-rule="evenodd"/><path fill="#004225" d="m547.1336 122.60787l0.048828125 0.63339996c0 5.72789 -0.9276123 10.411087 -2.782837 14.049622c-1.8552246 3.6283417 -4.3708496 6.2935486 -7.546936 7.9956055c-3.1760254 1.7020569 -6.7302246 2.5530853 -10.662476 2.5530853c-3.8112793 0 -6.710083 -0.7898865 -8.69635 -2.3696442c-1.9762573 -1.5797577 -2.9643555 -3.9799652 -2.9643555 -7.2006226c0 -3.0677643 0.9276123 -5.4170227 2.782837 -7.0477295c1.8552246 -1.630722 4.6279907 -2.8537598 8.318298 -3.6691132l21.50299 -4.944603zm-14.999634 -22.237366c-3.9625244 0 -7.294861 0.5095978 -9.99707 1.5287933c-2.6920776 1.0090103 -4.8447266 2.5581818 -6.458008 4.647537c-1.6031494 2.0791626 -2.777771 4.6679153 -3.5239258 7.7662735l3.9474487 0.8867035c0.9578247 -3.7200623 2.6618042 -6.4871826 5.1119385 -8.301353c2.4500732 -1.8243637 6.0596924 -2.7365417 10.828857 -2.7365417c3.0651245 0 5.711853 0.422966 7.9401855 1.268898c2.2282715 0.845932 3.9523926 2.2014618 5.1724243 4.066597c1.2301025 1.8651276 1.8451538 4.3468704 1.8451538 7.4452286l0 2.5355148l0 0l-22.020752 4.879135c-4.990906 1.1007309 -8.69635 2.7110672 -11.116211 4.830986c-2.4097595 2.1097412 -3.6146545 5.213196 -3.6146545 9.310364c0 4.321396 1.3057251 7.572632 3.9171448 9.753708c2.621521 2.1708984 6.4277344 3.2563324 11.418701 3.2563324c6.039551 0 10.864197 -1.5491791 14.473816 -4.647537c3.6096191 -3.098343 5.8479614 -7.246475 6.715088 -12.444382l0.22686768 0l0 13.575699c0 0.90708923 0.20666504 1.610321 0.62005615 2.109726c0.42352295 0.4994049 1.0385742 0.749115 1.8451538 0.749115l9.286194 0l0 -3.562088l-7.6679077 0l0 -30.575897c0 -3.9137115 -0.74609375 -7.068123 -2.2383423 -9.463234c-1.4821777 -2.395111 -3.6398926 -4.1379395 -6.4731445 -5.2284775c-2.833252 -1.1007309 -6.246277 -1.6511002 -10.239014 -1.6511002z" fill-rule="evenodd"/><path fill="#004225" d="m584.2214 100.416374c-4.93042 0 -8.827393 1.1109238 -11.690918 3.3327713c-2.8635254 2.2218475 -4.295227 5.289627 -4.295227 9.203339c0 3.7914124 1.4871826 6.808235 4.461609 9.050468c2.9743652 2.2320404 7.869568 3.8627472 14.685486 4.8921432c5.5354614 0.845932 9.4626465 2.1403046 11.781677 3.883133c2.3291626 1.7326355 3.4937134 4.086975 3.4937134 7.063034c0 3.322586 -1.2149658 5.8858643 -3.6448975 7.6898346c-2.4299927 1.7937927 -5.767334 2.6906738 -10.012207 2.6906738c-4.920349 0 -8.8324585 -1.217926 -11.736328 -3.6538086c-2.8937378 -2.4460754 -4.6783447 -5.6106873 -5.353882 -9.49382l-4.098694 0l0 15.777161l4.098694 0l0 -10.24292l0.22680664 0c0.5545654 1.9160919 1.5376587 3.7098694 2.9492188 5.3813477c1.4116211 1.6714935 3.3222656 3.0321198 5.7320557 4.081894c2.4198608 1.0497589 5.409363 1.574646 8.968567 1.574646c5.3338013 0 9.482849 -1.2281342 12.447205 -3.6843872c2.9743652 -2.4562683 4.461609 -5.860382 4.461609 -10.212357c0 -4.005432 -1.4418335 -7.1904297 -4.3255005 -9.554962c-2.8735962 -2.3645325 -7.6729736 -4.0818787 -14.398193 -5.152031c-5.444641 -0.845932 -9.432373 -2.0434875 -11.963135 -3.5926666c-2.520691 -1.5491791 -3.781067 -3.7302628 -3.781067 -6.5432434c0 -2.8843307 1.1393433 -5.131653 3.4180908 -6.7419815c2.2786865 -1.6103287 5.3186035 -2.4154968 9.119812 -2.4154968c4.8094482 0 8.565308 1.1669769 11.267456 3.5009384c2.7122803 2.3339615 4.3809814 5.345688 5.0061035 9.0351715l4.083496 0l0 -15.073914l-4.083496 0l0 9.677269l-0.2420044 0c-0.4335327 -1.691864 -1.2704468 -3.3429642 -2.51062 -4.953293c-1.2300415 -1.6205215 -2.9995728 -2.9454803 -5.3085327 -3.9748611c-2.30896 -1.0293884 -5.2279053 -1.5440826 -8.756897 -1.5440826z" fill-rule="evenodd"/><path fill="#004225" d="m680.05615 85.43419l15.635193 37.608345l-31.753113 0l15.6710205 -37.608345zm-2.5440674 -5.213196l-27.78302 66.68602l-7.395691 0l0 3.9442902l29.5979 0l0 -3.9442902l-17.937195 0l8.338806 -20.011917l34.960144 0l8.319702 20.011917l-17.876709 0l0 3.9442902l29.779358 0l0 -3.9442902l-7.44104 0l-27.73767 -66.68602z" fill-rule="evenodd"/><path fill="#004225" d="m722.6312 76.643616l0 3.5773773l10.859131 0l0 67.06822l-10.859131 0l0 3.562088l25.96814 0l0 -3.562088l-11.010376 0l0 -70.6456z" fill-rule="evenodd"/><path fill="#004225" d="m789.99146 104.07019c4.0230103 0 7.5670776 0.94275665 10.632263 2.82827c3.0751953 1.8753204 5.4849854 4.464081 7.229309 7.7662735c1.7543945 3.3022003 2.6315918 7.08342 2.6315918 11.343658c0 4.2602386 -0.86206055 8.041458 -2.5861816 11.343658c-1.7141113 3.3022003 -4.1036987 5.896042 -7.1688843 7.781555c-3.0651245 1.8753204 -6.6445312 2.8129883 -10.738098 2.8129883c-4.1137695 0 -7.713318 -0.93766785 -10.798645 -2.8129883c-3.085266 -1.8855133 -5.4799194 -4.479355 -7.18396 -7.781555c-1.7039795 -3.3022003 -2.5559692 -7.0681305 -2.5559692 -11.297798c0 -4.2908173 0.85705566 -8.087318 2.571106 -11.389519c1.7241821 -3.3021927 4.1289062 -5.890953 7.2142334 -7.7662735c3.0853271 -1.8855133 6.669739 -2.82827 10.753235 -2.82827zm0.83184814 -3.7455444c-4.083557 0 -7.597351 0.8204498 -10.541504 2.461357c-2.9442139 1.6409073 -5.293457 3.7149734 -7.0478516 6.222191c-1.7443237 2.507225 -2.878662 5.0755997 -3.402954 7.705124l-0.22686768 0l0 -15.501976l-14.92749 0l0 3.5620956l10.828857 0l0 62.23723l-10.828857 0l0 3.562088l25.559753 0l0 -3.562088l-10.632263 0l0 -28.28537l0 0c0.28704834 0.5917206 0.59454346 1.168457 0.9226074 1.7302094c2.0770264 3.5467987 4.819519 6.3088226 8.227478 8.2860565c3.407959 1.9670563 7.294861 2.9505768 11.660706 2.9505768c4.7993774 0 9.024048 -1.1007233 12.674011 -3.3022003c3.6600342 -2.2116547 6.508423 -5.2488556 8.545166 -9.111603c2.046753 -3.8729553 3.0701904 -8.296265 3.0701904 -13.269943c0 -3.7302551 -0.58984375 -7.159851 -1.7695312 -10.288788c-1.1696167 -3.1289368 -2.8181152 -5.845093 -4.9456177 -8.148476c-2.1173706 -2.3033829 -4.6430664 -4.086975 -7.5771484 -5.3507767c-2.9240112 -1.2638092 -6.1202393 -1.8957062 -9.588684 -1.8957062z" fill-rule="evenodd"/><path fill="#004225" d="m822.38385 76.643616l0 3.5773773l10.768372 0l0 67.06822l-10.768372 0l0 3.562088l24.712769 0l0 -3.562088l-9.845764 0l0 -19.966057c0 -5.045021 0.88726807 -9.305267 2.6618042 -12.780724c1.784668 -3.4754562 4.1692505 -6.1202774 7.1537476 -7.9344482c2.9945679 -1.8141708 6.331909 -2.7212524 10.012146 -2.7212524c4.5271606 0 7.809082 1.3147659 9.845825 3.9442902c2.046753 2.6295242 3.0701904 6.2629623 3.0701904 10.900307l0 28.557884l-9.800476 0l0 3.562088l24.122986 0l0 -3.562088l-10.223877 0l0 -29.169403c0 -5.636154 -1.25531 -10.0288925 -3.7659302 -13.178207c-2.51062 -3.1493149 -6.5689087 -4.723976 -12.174927 -4.723976c-3.7810059 0 -7.088135 0.7083435 -9.921387 2.125023c-2.833252 1.4064941 -5.1573486 3.388832 -6.972229 5.947014c-1.8048096 2.547989 -3.0651245 5.5597153 -3.7810059 9.0351715l-0.22686768 0l0 -40.68122z" fill-rule="evenodd"/><path fill="#004225" d="m929.1391 122.60787l0.048828125 0.63339996c0 5.72789 -0.9276123 10.411087 -2.782837 14.049622c-1.8552246 3.6283417 -4.3708496 6.2935486 -7.546936 7.9956055c-3.1760864 1.7020569 -6.7302246 2.5530853 -10.662537 2.5530853c-3.8112793 0 -6.710022 -0.7898865 -8.69635 -2.3696442c-1.9761963 -1.5797577 -2.9642944 -3.9799652 -2.9642944 -7.2006226c0 -3.0677643 0.9276123 -5.4170227 2.782837 -7.0477295c1.8551636 -1.630722 4.6279297 -2.8537598 8.318237 -3.6691132l21.503052 -4.944603zm-14.999695 -22.237366c-3.9625244 0 -7.294861 0.5095978 -9.997009 1.5287933c-2.6920776 1.0090103 -4.8447876 2.5581818 -6.458008 4.647537c-1.6031494 2.0791626 -2.777771 4.6679153 -3.5239258 7.7662735l3.9473877 0.8867035c0.95788574 -3.7200623 2.6618652 -6.4871826 5.1119385 -8.301353c2.4501343 -1.8243637 6.0597534 -2.7365417 10.828918 -2.7365417c3.0651245 0 5.711853 0.422966 7.9401245 1.268898c2.2283325 0.845932 3.9524536 2.2014618 5.1724854 4.066597c1.2301025 1.8651276 1.8450928 4.3468704 1.8450928 7.4452286l0 2.5355148l-22.02069 4.879135c-4.990967 1.1007309 -8.69635 2.7110672 -11.116211 4.830986c-2.40979 2.1097412 -3.614685 5.213196 -3.614685 9.310364c0 4.321396 1.3057251 7.572632 3.9171753 9.753708c2.621521 2.1708984 6.4277344 3.2563324 11.418701 3.2563324c6.039551 0 10.864136 -1.5491791 14.473755 -4.647537c3.6096191 -3.098343 5.8479614 -7.246475 6.715088 -12.444382l0.22686768 0l0 13.575699c0 0.90708923 0.20672607 1.610321 0.6201172 2.109726c0.4234619 0.4994049 1.0385132 0.749115 1.8451538 0.749115l9.286194 0l0 -3.562088l-7.6679077 0l0 -30.575897c0 -3.9137115 -0.7461548 -7.068123 -2.2384033 -9.463234c-1.4821777 -2.395111 -3.6398315 -4.1379395 -6.4730835 -5.2284775c-2.833313 -1.1007309 -6.246277 -1.6511002 -10.239075 -1.6511002z" fill-rule="evenodd"/><path stroke="#004225" stroke-width="1.0" stroke-linejoin="round" stroke-linecap="butt" d="m362.08493 104.07019c4.0230103 0 7.506592 0.91218567 10.450775 2.7365417c2.9441528 1.8141708 5.2127686 4.3162994 6.805847 7.506378c1.4114685 2.826439 2.1976624 6.0369034 2.358551 9.631409l-39.744232 0c0.24414062 -3.4278488 1.0705566 -6.5109177 2.4792175 -9.249207c1.7039795 -3.3225784 4.073395 -5.9215317 7.1083374 -7.796852c3.0348816 -1.8855133 6.548706 -2.82827 10.541504 -2.82827zm-94.41614 -23.849197l0 3.9442902l7.4410706 0l27.601501 66.68602l4.824585 0l27.601532 -66.68602l7.425934 0l0 -3.9442902l-30.051636 0l0 3.9442902l18.43631 0l-25.56366 61.70215l-0.23458862 0l-25.57837 -61.70215l18.43628 0l0 -3.9442902zm94.41614 20.103653c-4.859894 0 -9.109772 1.1058273 -12.749634 3.317482c-3.639862 2.2014618 -6.4781494 5.243767 -8.514862 9.126907c-2.0266418 3.883133 -3.0399475 8.342117 -3.0399475 13.3769455c0 5.01445 1.0133057 9.432663 3.0399475 13.254654c2.0366821 3.811798 4.8951416 6.8082275 8.575348 8.989304c3.6903076 2.1708984 8.010742 3.2563324 12.961365 3.2563324c5.243042 0 9.835754 -1.2586975 13.778076 -3.776123c3.9524536 -2.5174103 6.886505 -5.9521027 8.802246 -10.304062l-3.902008 -1.5135193c-1.6031799 3.6691132 -4.0431824 6.5534363 -7.320099 8.652985c-3.2667847 2.0893555 -7.067993 3.1340332 -11.403564 3.1340332c-4.1137695 0 -7.698181 -0.91218567 -10.753265 -2.7365417c-3.044983 -1.8345642 -5.419464 -4.3876495 -7.1234436 -7.6592712c-1.5515747 -2.9789886 -2.396759 -6.367813 -2.535553 -10.166481l43.884888 0c0 -0.19364166 0.0050354004 -0.422966 0.015106201 -0.68795776c0.02017212 -0.26499176 0.030273438 -0.5707474 0.030273438 -0.9172745c0 -4.9736786 -0.97805786 -9.3613205 -2.934082 -13.162918c-1.9459839 -3.811798 -4.6935425 -6.792946 -8.242645 -8.943451c-3.5491333 -2.160698 -7.7385254 -3.241043 -12.568146 -3.241043z" fill-rule="evenodd"/><path stroke="#004225" stroke-width="1.0" stroke-linejoin="round" stroke-linecap="butt" d="m427.2711 100.462234c-3.226471 0 -6.009308 0.71343994 -8.348511 2.1403122c-2.329132 1.416687 -4.2095337 3.3480606 -5.6412964 5.794136c-1.4216614 2.4460678 -2.3795166 5.2029953 -2.8735962 8.270775l-0.24197388 0l0 -15.456116l-15.003113 0l0 3.5620956l10.919586 0l0 42.515778l-10.919586 0l0 3.562088l25.363129 0l0 -3.562088l-10.360016 0l0 -19.966057c0 -6.9814987 1.5073853 -12.449486 4.5220947 -16.403969c3.0248413 -3.9646683 7.0629883 -5.947006 12.114441 -5.947006c0.8066101 0 1.4821472 0.040763855 2.0266113 0.122299194c0.5444641 0.07134247 1.0486145 0.16816711 1.5124207 0.29047394l0 -4.647537c-0.56463623 -0.09172821 -1.073822 -0.15797424 -1.5275269 -0.19874573c-0.44363403 -0.050956726 -0.9578552 -0.076438904 -1.5426636 -0.076438904z" fill-rule="evenodd"/><path stroke="#004225" stroke-width="1.0" stroke-linejoin="round" stroke-linecap="butt" d="m447.06235 82.05555l0 6.145752l5.898407 0l0 -6.145752zm-9.573578 19.155792l0 3.5620956l10.738129 0l0 42.515778l-10.738129 0l0 3.562088l24.954803 0l0 -3.562088l-10.133148 0l0 -46.077873z" fill-rule="evenodd"/><path stroke="#004225" stroke-width="1.0" stroke-linejoin="round" stroke-linecap="butt" d="m476.9311 88.52235l0 12.688995l-9.422333 0l0 3.5620956l9.422333 0l-0.09072876 33.159546c0 2.8843231 0.4234619 5.3507843 1.2704163 7.3993683c0.85702515 2.048584 2.1526794 3.6130524 3.8869019 4.693405c1.7342224 1.0803375 3.982666 1.6205139 6.7453613 1.6205139c2.6013489 0 4.7691345 -0.52996826 6.503357 -1.5899353c1.7342224 -1.0701599 3.034912 -2.6295319 3.902008 -4.678116c0.86712646 -2.048584 1.3006897 -4.5303345 1.3006897 -7.445236l0 -4.3570557l-3.8112793 0l0 4.3570557c0 3.1595154 -0.6503296 5.595398 -1.9510193 7.3076477c-1.3006592 1.7020569 -3.2668152 2.5530853 -5.898407 2.5530853c-2.7324219 0 -4.723755 -0.8408356 -5.9740295 -2.5225067c-1.2502441 -1.691864 -1.8753662 -4.1379395 -1.8753662 -7.3382263l0.09072876 -33.159546l18.950531 0l0 -3.5620956l-18.950531 0l0 -12.688995z" fill-rule="evenodd"/><path stroke="#004225" stroke-width="1.0" stroke-linejoin="round" stroke-linecap="butt" d="m547.1336 122.60787l0.048828125 0.63339996c0 5.72789 -0.9276123 10.411087 -2.782837 14.049622c-1.8552246 3.6283417 -4.3708496 6.2935486 -7.546936 7.9956055c-3.1760254 1.7020569 -6.7302246 2.5530853 -10.662476 2.5530853c-3.8112793 0 -6.710083 -0.7898865 -8.69635 -2.3696442c-1.9762573 -1.5797577 -2.9643555 -3.9799652 -2.9643555 -7.2006226c0 -3.0677643 0.9276123 -5.4170227 2.782837 -7.0477295c1.8552246 -1.630722 4.6279907 -2.8537598 8.318298 -3.6691132l21.50299 -4.944603zm-14.999634 -22.237366c-3.9625244 0 -7.294861 0.5095978 -9.99707 1.5287933c-2.6920776 1.0090103 -4.8447266 2.5581818 -6.458008 4.647537c-1.6031494 2.0791626 -2.777771 4.6679153 -3.5239258 7.7662735l3.9474487 0.8867035c0.9578247 -3.7200623 2.6618042 -6.4871826 5.1119385 -8.301353c2.4500732 -1.8243637 6.0596924 -2.7365417 10.828857 -2.7365417c3.0651245 0 5.711853 0.422966 7.9401855 1.268898c2.2282715 0.845932 3.9523926 2.2014618 5.1724243 4.066597c1.2301025 1.8651276 1.8451538 4.3468704 1.8451538 7.4452286l0 2.5355148l0 0l-22.020752 4.879135c-4.990906 1.1007309 -8.69635 2.7110672 -11.116211 4.830986c-2.4097595 2.1097412 -3.6146545 5.213196 -3.6146545 9.310364c0 4.321396 1.3057251 7.572632 3.9171448 9.753708c2.621521 2.1708984 6.4277344 3.2563324 11.418701 3.2563324c6.039551 0 10.864197 -1.5491791 14.473816 -4.647537c3.6096191 -3.098343 5.8479614 -7.246475 6.715088 -12.444382l0.22686768 0l0 13.575699c0 0.90708923 0.20666504 1.610321 0.62005615 2.109726c0.42352295 0.4994049 1.0385742 0.749115 1.8451538 0.749115l9.286194 0l0 -3.562088l-7.6679077 0l0 -30.575897c0 -3.9137115 -0.74609375 -7.068123 -2.2383423 -9.463234c-1.4821777 -2.395111 -3.6398926 -4.1379395 -6.4731445 -5.2284775c-2.833252 -1.1007309 -6.246277 -1.6511002 -10.239014 -1.6511002z" fill-rule="evenodd"/><path stroke="#004225" stroke-width="1.0" stroke-linejoin="round" stroke-linecap="butt" d="m584.2214 100.416374c-4.93042 0 -8.827393 1.1109238 -11.690918 3.3327713c-2.8635254 2.2218475 -4.295227 5.289627 -4.295227 9.203339c0 3.7914124 1.4871826 6.808235 4.461609 9.050468c2.9743652 2.2320404 7.869568 3.8627472 14.685486 4.8921432c5.5354614 0.845932 9.4626465 2.1403046 11.781677 3.883133c2.3291626 1.7326355 3.4937134 4.086975 3.4937134 7.063034c0 3.322586 -1.2149658 5.8858643 -3.6448975 7.6898346c-2.4299927 1.7937927 -5.767334 2.6906738 -10.012207 2.6906738c-4.920349 0 -8.8324585 -1.217926 -11.736328 -3.6538086c-2.8937378 -2.4460754 -4.6783447 -5.6106873 -5.353882 -9.49382l-4.098694 0l0 15.777161l4.098694 0l0 -10.24292l0.22680664 0c0.5545654 1.9160919 1.5376587 3.7098694 2.9492188 5.3813477c1.4116211 1.6714935 3.3222656 3.0321198 5.7320557 4.081894c2.4198608 1.0497589 5.409363 1.574646 8.968567 1.574646c5.3338013 0 9.482849 -1.2281342 12.447205 -3.6843872c2.9743652 -2.4562683 4.461609 -5.860382 4.461609 -10.212357c0 -4.005432 -1.4418335 -7.1904297 -4.3255005 -9.554962c-2.8735962 -2.3645325 -7.6729736 -4.0818787 -14.398193 -5.152031c-5.444641 -0.845932 -9.432373 -2.0434875 -11.963135 -3.5926666c-2.520691 -1.5491791 -3.781067 -3.7302628 -3.781067 -6.5432434c0 -2.8843307 1.1393433 -5.131653 3.4180908 -6.7419815c2.2786865 -1.6103287 5.3186035 -2.4154968 9.119812 -2.4154968c4.8094482 0 8.565308 1.1669769 11.267456 3.5009384c2.7122803 2.3339615 4.3809814 5.345688 5.0061035 9.0351715l4.083496 0l0 -15.073914l-4.083496 0l0 9.677269l-0.2420044 0c-0.4335327 -1.691864 -1.2704468 -3.3429642 -2.51062 -4.953293c-1.2300415 -1.6205215 -2.9995728 -2.9454803 -5.3085327 -3.9748611c-2.30896 -1.0293884 -5.2279053 -1.5440826 -8.756897 -1.5440826z" fill-rule="evenodd"/><path stroke="#004225" stroke-width="1.0" stroke-linejoin="round" stroke-linecap="butt" d="m680.05615 85.43419l15.635193 37.608345l-31.753113 0l15.6710205 -37.608345zm-2.5440674 -5.213196l-27.78302 66.68602l-7.395691 0l0 3.9442902l29.5979 0l0 -3.9442902l-17.937195 0l8.338806 -20.011917l34.960144 0l8.319702 20.011917l-17.876709 0l0 3.9442902l29.779358 0l0 -3.9442902l-7.44104 0l-27.73767 -66.68602z" fill-rule="evenodd"/><path stroke="#004225" stroke-width="1.0" stroke-linejoin="round" stroke-linecap="butt" d="m722.6312 76.643616l0 3.5773773l10.859131 0l0 67.06822l-10.859131 0l0 3.562088l25.96814 0l0 -3.562088l-11.010376 0l0 -70.6456z" fill-rule="evenodd"/><path stroke="#004225" stroke-width="1.0" stroke-linejoin="round" stroke-linecap="butt" d="m789.99146 104.07019c4.0230103 0 7.5670776 0.94275665 10.632263 2.82827c3.0751953 1.8753204 5.4849854 4.464081 7.229309 7.7662735c1.7543945 3.3022003 2.6315918 7.08342 2.6315918 11.343658c0 4.2602386 -0.86206055 8.041458 -2.5861816 11.343658c-1.7141113 3.3022003 -4.1036987 5.896042 -7.1688843 7.781555c-3.0651245 1.8753204 -6.6445312 2.8129883 -10.738098 2.8129883c-4.1137695 0 -7.713318 -0.93766785 -10.798645 -2.8129883c-3.085266 -1.8855133 -5.4799194 -4.479355 -7.18396 -7.781555c-1.7039795 -3.3022003 -2.5559692 -7.0681305 -2.5559692 -11.297798c0 -4.2908173 0.85705566 -8.087318 2.571106 -11.389519c1.7241821 -3.3021927 4.1289062 -5.890953 7.2142334 -7.7662735c3.0853271 -1.8855133 6.669739 -2.82827 10.753235 -2.82827zm0.83184814 -3.7455444c-4.083557 0 -7.597351 0.8204498 -10.541504 2.461357c-2.9442139 1.6409073 -5.293457 3.7149734 -7.0478516 6.222191c-1.7443237 2.507225 -2.878662 5.0755997 -3.402954 7.705124l-0.22686768 0l0 -15.501976l-14.92749 0l0 3.5620956l10.828857 0l0 62.23723l-10.828857 0l0 3.562088l25.559753 0l0 -3.562088l-10.632263 0l0 -28.28537l0 0c0.28704834 0.5917206 0.59454346 1.168457 0.9226074 1.7302094c2.0770264 3.5467987 4.819519 6.3088226 8.227478 8.2860565c3.407959 1.9670563 7.294861 2.9505768 11.660706 2.9505768c4.7993774 0 9.024048 -1.1007233 12.674011 -3.3022003c3.6600342 -2.2116547 6.508423 -5.2488556 8.545166 -9.111603c2.046753 -3.8729553 3.0701904 -8.296265 3.0701904 -13.269943c0 -3.7302551 -0.58984375 -7.159851 -1.7695312 -10.288788c-1.1696167 -3.1289368 -2.8181152 -5.845093 -4.9456177 -8.148476c-2.1173706 -2.3033829 -4.6430664 -4.086975 -7.5771484 -5.3507767c-2.9240112 -1.2638092 -6.1202393 -1.8957062 -9.588684 -1.8957062z" fill-rule="evenodd"/><path stroke="#004225" stroke-width="1.0" stroke-linejoin="round" stroke-linecap="butt" d="m822.38385 76.643616l0 3.5773773l10.768372 0l0 67.06822l-10.768372 0l0 3.562088l24.712769 0l0 -3.562088l-9.845764 0l0 -19.966057c0 -5.045021 0.88726807 -9.305267 2.6618042 -12.780724c1.784668 -3.4754562 4.1692505 -6.1202774 7.1537476 -7.9344482c2.9945679 -1.8141708 6.331909 -2.7212524 10.012146 -2.7212524c4.5271606 0 7.809082 1.3147659 9.845825 3.9442902c2.046753 2.6295242 3.0701904 6.2629623 3.0701904 10.900307l0 28.557884l-9.800476 0l0 3.562088l24.122986 0l0 -3.562088l-10.223877 0l0 -29.169403c0 -5.636154 -1.25531 -10.0288925 -3.7659302 -13.178207c-2.51062 -3.1493149 -6.5689087 -4.723976 -12.174927 -4.723976c-3.7810059 0 -7.088135 0.7083435 -9.921387 2.125023c-2.833252 1.4064941 -5.1573486 3.388832 -6.972229 5.947014c-1.8048096 2.547989 -3.0651245 5.5597153 -3.7810059 9.0351715l-0.22686768 0l0 -40.68122z" fill-rule="evenodd"/><path stroke="#004225" stroke-width="1.0" stroke-linejoin="round" stroke-linecap="butt" d="m929.1391 122.60787l0.048828125 0.63339996c0 5.72789 -0.9276123 10.411087 -2.782837 14.049622c-1.8552246 3.6283417 -4.3708496 6.2935486 -7.546936 7.9956055c-3.1760864 1.7020569 -6.7302246 2.5530853 -10.662537 2.5530853c-3.8112793 0 -6.710022 -0.7898865 -8.69635 -2.3696442c-1.9761963 -1.5797577 -2.9642944 -3.9799652 -2.9642944 -7.2006226c0 -3.0677643 0.9276123 -5.4170227 2.782837 -7.0477295c1.8551636 -1.630722 4.6279297 -2.8537598 8.318237 -3.6691132l21.503052 -4.944603zm-14.999695 -22.237366c-3.9625244 0 -7.294861 0.5095978 -9.997009 1.5287933c-2.6920776 1.0090103 -4.8447876 2.5581818 -6.458008 4.647537c-1.6031494 2.0791626 -2.777771 4.6679153 -3.5239258 7.7662735l3.9473877 0.8867035c0.95788574 -3.7200623 2.6618652 -6.4871826 5.1119385 -8.301353c2.4501343 -1.8243637 6.0597534 -2.7365417 10.828918 -2.7365417c3.0651245 0 5.711853 0.422966 7.9401245 1.268898c2.2283325 0.845932 3.9524536 2.2014618 5.1724854 4.066597c1.2301025 1.8651276 1.8450928 4.3468704 1.8450928 7.4452286l0 2.5355148l-22.02069 4.879135c-4.990967 1.1007309 -8.69635 2.7110672 -11.116211 4.830986c-2.40979 2.1097412 -3.614685 5.213196 -3.614685 9.310364c0 4.321396 1.3057251 7.572632 3.9171753 9.753708c2.621521 2.1708984 6.4277344 3.2563324 11.418701 3.2563324c6.039551 0 10.864136 -1.5491791 14.473755 -4.647537c3.6096191 -3.098343 5.8479614 -7.246475 6.715088 -12.444382l0.22686768 0l0 13.575699c0 0.90708923 0.20672607 1.610321 0.6201172 2.109726c0.4234619 0.4994049 1.0385132 0.749115 1.8451538 0.749115l9.286194 0l0 -3.562088l-7.6679077 0l0 -30.575897c0 -3.9137115 -0.7461548 -7.068123 -2.2384033 -9.463234c-1.4821777 -2.395111 -3.6398315 -4.1379395 -6.4730835 -5.2284775c-2.833313 -1.1007309 -6.246277 -1.6511002 -10.239075 -1.6511002z" fill-rule="evenodd"/><path fill="#ffffff" d="m568.378 148.33786c0.2097168 0 0.36291504 0.02986145 0.45965576 0.08955383c0.09710693 0.059326172 0.14569092 0.15757751 0.14569092 0.29473877c0 0.14509583 -0.04345703 0.24920654 -0.1303711 0.31230164c-0.08654785 0.06272888 -0.2290039 0.09410095 -0.42736816 0.09410095l-0.45910645 0l0 -0.7906952zm0.06628418 1.0525513c0.2029419 0 0.35559082 0.03514099 0.4580078 0.10542297c0.1027832 0.07028198 0.1541748 0.18023682 0.1541748 0.32987976c0 0.15870667 -0.04876709 0.2760315 -0.14624023 0.3519745c-0.097473145 0.07595825 -0.24487305 0.11393738 -0.44207764 0.11393738l-0.50164795 0l0 -0.9012146zm-0.36218262 -1.6646881l0 0.34518433l-0.4284668 0l0 2.4859772l0.4284668 0l0 0.36898804l0.22277832 0l0 -0.36898804l0.2397461 0l0 0.36898804l0.22277832 0l0 -0.38598633c0.19268799 -0.03288269 0.3447876 -0.10731506 0.4562378 -0.22332764c0.11187744 -0.116378784 0.16778564 -0.2720642 0.16778564 -0.46704102c0 -0.15983582 -0.044189453 -0.29039 -0.1326294 -0.3916626c-0.08843994 -0.101638794 -0.23010254 -0.16946411 -0.42510986 -0.20347595l0 -0.016998291c0.15307617 -0.02835083 0.27001953 -0.09069824 0.3508911 -0.18704224c0.08123779 -0.09635925 0.12182617 -0.21765137 0.12182617 -0.3638916c0 -0.1711731 -0.045166016 -0.30323792 -0.13543701 -0.39619446c-0.08996582 -0.09295654 -0.2244873 -0.15586853 -0.40356445 -0.18873596l0 -0.37579346l-0.22277832 0l0 0.3519745c-0.030578613 -0.0022583008 -0.060424805 -0.003967285 -0.089538574 -0.0050964355c-0.028747559 -0.0011291504 -0.059509277 -0.0016937256 -0.09240723 -0.0016937256l-0.057800293 0l0 -0.34518433z" fill-rule="evenodd"/></g></svg>