<svg version="1.1" viewBox="0.0 0.0 672.0 672.0" fill="none" stroke="none" stroke-linecap="square" stroke-miterlimit="10" xmlns:xlink="http://www.w3.org/1999/xlink" xmlns="http://www.w3.org/2000/svg"><clipPath id="p.0"><path d="m0 0l672.0 0l0 672.0l-672.0 0l0 -672.0z" clip-rule="nonzero"/></clipPath><g clip-path="url(#p.0)"><path fill="#000000" fill-opacity="0.0" d="m0 0l672.0 0l0 672.0l-672.0 0z" fill-rule="evenodd"/><path fill="#004225" d="m0 336.0l0 0c0 -185.56767 150.43233 -336.0 336.0 -336.0l0 0c89.11273 0 174.57565 35.3999 237.58789 98.412125c63.012207 63.012222 98.41211 148.47513 98.41211 237.58788l0 0c0 185.56769 -150.43231 336.0 -336.0 336.0l0 0c-185.56767 0 -336.0 -150.43231 -336.0 -336.0z" fill-rule="evenodd"/><path stroke="#004225" stroke-width="1.0" stroke-linejoin="round" stroke-linecap="butt" d="m0 336.0l0 0c0 -185.56767 150.43233 -336.0 336.0 -336.0l0 0c89.11273 0 174.57565 35.3999 237.58789 98.412125c63.012207 63.012222 98.41211 148.47513 98.41211 237.58788l0 0c0 185.56769 -150.43231 336.0 -336.0 336.0l0 0c-185.56767 0 -336.0 -150.43231 -336.0 -336.0z" fill-rule="evenodd"/><path fill="#ffffff" d="m273.85355 210.8394c4.898224 17.143799 12.389618 39.041733 22.474213 65.69383l33.06302 87.73587l-107.4008 0l34.791824 -92.92221c7.3473206 -20.0251 13.037903 -40.19426 17.071747 -60.507492zm-21.609818 -33.279114l-121.66327 316.79993l44.51622 0l34.79181 -95.9476l132.46817 0l36.95279 95.9476l47.75769 0l-129.6589 -316.79993z" fill-rule="evenodd"/><path fill="#ffffff" d="m467.6936 177.56029l0 316.79993l41.923035 0l0 -316.79993z" fill-rule="evenodd"/><path stroke="#004225" stroke-width="1.0" stroke-linejoin="round" stroke-linecap="butt" d="m273.85355 210.8394c4.898224 17.143799 12.389618 39.041733 22.474213 65.69383l33.06302 87.73587l-107.4008 0l34.791824 -92.92221c7.3473206 -20.0251 13.037903 -40.19426 17.071747 -60.507492zm-21.609818 -33.279114l-121.66327 316.79993l44.51622 0l34.79181 -95.9476l132.46817 0l36.95279 95.9476l47.75769 0l-129.6589 -316.79993z" fill-rule="evenodd"/><path stroke="#004225" stroke-width="1.0" stroke-linejoin="round" stroke-linecap="butt" d="m467.6936 177.56029l0 316.79993l41.923035 0l0 -316.79993z" fill-rule="evenodd"/></g></svg>