<svg version="1.1" viewBox="0.0 0.0 672.0 672.0" fill="none" stroke="none" stroke-linecap="square" stroke-miterlimit="10" xmlns:xlink="http://www.w3.org/1999/xlink" xmlns="http://www.w3.org/2000/svg"><clipPath id="p.0"><path d="m0 0l672.0 0l0 672.0l-672.0 0l0 -672.0z" clip-rule="nonzero"/></clipPath><g clip-path="url(#p.0)"><path fill="#000000" fill-opacity="0.0" d="m0 0l672.0 0l0 672.0l-672.0 0z" fill-rule="evenodd"/><path fill="#004225" d="m0 336.0l0 0c0 -185.56767 150.43233 -336.0 336.0 -336.0l0 0c89.11273 0 174.57565 35.3999 237.58789 98.412125c63.012207 63.012222 98.41211 148.47513 98.41211 237.58788l0 0c0 185.56769 -150.43231 336.0 -336.0 336.0l0 0c-185.56767 0 -336.0 -150.43231 -336.0 -336.0z" fill-rule="evenodd"/><path stroke="#004225" stroke-width="1.0" stroke-linejoin="round" stroke-linecap="butt" d="m0 336.0l0 0c0 -185.56767 150.43233 -336.0 336.0 -336.0l0 0c89.11273 0 174.57565 35.3999 237.58789 98.412125c63.012207 63.012222 98.41211 148.47513 98.41211 237.58788l0 0c0 185.56769 -150.43231 336.0 -336.0 336.0l0 0c-185.56767 0 -336.0 -150.43231 -336.0 -336.0z" fill-rule="evenodd"/><path fill="#ffffff" d="m262.2619 331.0973c2.4828796 0 4.6066284 0.55914307 6.3713074 1.6774597c1.764679 1.1182861 3.125824 2.6516724 4.0834045 4.600128c0.7470093 1.519989 1.2026367 3.2111511 1.3669128 5.073517l-23.83429 0c0.20062256 -1.7953186 0.6652374 -3.4213257 1.3938141 -4.8779907c1.0122986 -2.0170593 2.4315643 -3.5984497 4.2578125 -4.7442017c1.8262177 -1.1526184 3.946579 -1.7289124 6.361038 -1.7289124zm-63.820404 -17.35083l0 4.3325806l4.6374054 0l17.523682 43.21237l5.2940216 0l17.523682 -43.21237l4.6271515 0l0 -4.3325806l-20.447708 0l0 4.3325806l11.213913 0l-15.300278 37.747803l-0.18896484 0l-15.300293 -37.747803l11.224182 0l0 -4.3325806zm63.820404 13.275543c-3.3378296 0 -6.2618713 0.74783325 -8.772079 2.2434692c-2.5102234 1.495636 -4.4664154 3.56073 -5.8685913 6.1952515c-1.3953247 2.6345215 -2.092987 5.67041 -2.092987 9.1076355c0 3.3960876 0.6942291 6.394226 2.0827332 8.994446c1.3884888 2.6002197 3.351532 4.637848 5.889099 6.112915c2.5444183 1.4750671 5.550522 2.2125854 9.018326 2.2125854c3.631958 0 6.8090515 -0.85757446 9.531311 -2.5727844c2.7222595 -1.7151794 4.7023926 -4.061554 5.940399 -7.0391235l-4.2783203 -1.6054077c-0.9507446 2.1679993 -2.3973694 3.8797607 -4.3398743 5.1352844c-1.9425049 1.2554932 -4.237274 1.8832703 -6.884308 1.8832703c-2.544403 0 -4.743408 -0.5591736 -6.5970154 -1.6774597c-1.846756 -1.1182861 -3.2694397 -2.6619568 -4.268051 -4.631012c-0.8093262 -1.606781 -1.2884216 -3.4145813 -1.4373169 -5.423401l28.37944 0c0.041046143 -0.16467285 0.064971924 -0.36361694 0.07180786 -0.5968933c0.013671875 -0.23327637 0.02053833 -0.54885864 0.02053833 -0.94677734c0 -3.4166565 -0.66348267 -6.431946 -1.9904175 -9.045898c-1.3200684 -2.6139526 -3.2113037 -4.6584473 -5.673645 -6.1335144c-2.4554749 -1.4750366 -5.3658447 -2.2125854 -8.731049 -2.2125854z" fill-rule="evenodd"/><path fill="#ffffff" d="m307.24234 327.11462c-1.9972534 0 -3.7380066 0.4390869 -5.222229 1.3172607c-1.477417 0.8713379 -2.6777954 2.1131287 -3.6011658 3.7254028c-0.9234009 1.6122742 -1.532135 3.5367126 -1.8262634 5.7733154l-0.22570801 0l0 -10.311707l-11.439636 0l0 3.920929l6.9048157 0l0 25.830688l-6.9048157 0l0 3.9208984l17.995636 0l0 -3.9208984l-6.5559998 0l0 -12.071472c0 -4.137024 0.9336548 -7.3684387 2.8009338 -9.694244c1.874115 -2.3257751 4.367218 -3.488678 7.4793396 -3.488678c0.4993286 0 0.9644165 0.030883789 1.3953247 0.09262085c0.43093872 0.06173706 0.8378906 0.14407349 1.2209167 0.24697876l0 -5.145569c-0.3624878 -0.068603516 -0.69766235 -0.116607666 -1.0054321 -0.14407349c-0.30096436 -0.034301758 -0.63952637 -0.051452637 -1.0157166 -0.051452637z" fill-rule="evenodd"/><path fill="#ffffff" d="m319.98007 313.42746l0 6.040863l5.7967834 0l0 -6.040863zm-5.960907 14.191437l0 3.920929l6.8022156 0l0 25.830688l-6.8022156 0l0 3.9208984l17.810944 0l0 -3.9208984l-6.4636536 0l0 -29.751617z" fill-rule="evenodd"/><path fill="#ffffff" d="m341.09018 319.08755l0 8.531342l-5.981415 0l0 3.920929l5.981415 0l-0.030761719 20.839508c0 1.9758911 0.30438232 3.6704712 0.91311646 5.0838013c0.60873413 1.4132996 1.5423889 2.504181 2.8009033 3.272583c1.2653809 0.7684021 2.8761597 1.1525879 4.832367 1.1525879c1.9082947 0 3.471222 -0.37390137 4.68869 -1.1217346c1.2243347 -0.74780273 2.1340332 -1.8318176 2.7290955 -3.2519836c0.6018982 -1.420166 0.90286255 -3.142212 0.90286255 -5.1661377l0 -3.0976257l-4.1039124 0l0 3.1285095c0 1.7288818 -0.34539795 3.053009 -1.0362244 3.972351c-0.6908264 0.9124756 -1.7202148 1.3687134 -3.0881958 1.3687134c-1.3884888 0 -2.4178772 -0.44595337 -3.0881653 -1.3378296c-0.6703186 -0.8987732 -1.0054626 -2.2331848 -1.0054626 -4.003235l0.030761719 -20.839508l11.819244 0l0.030792236 -3.920929l-11.850037 0l0 -8.531342z" fill-rule="evenodd"/><path fill="#ffffff" d="m388.34143 343.18567c-7.324219E-4 3.180481 -0.5479431 5.8539734 -1.6415405 8.020477c-1.0943909 2.1679688 -2.5991516 3.8111267 -4.5143127 4.9294434c-1.9082947 1.1182861 -4.069702 1.6774292 -6.4841614 1.6774292c-2.1887512 0 -3.85083 -0.4562378 -4.9862366 -1.3687134c-1.1285706 -0.91934204 -1.6928711 -2.3086243 -1.6928711 -4.1679077c0 -1.7014465 0.50616455 -3.0221558 1.5184631 -3.9620667c1.0191345 -0.9399109 2.5615234 -1.6500244 4.627136 -2.130249l13.173523 -2.998413zm-8.925964 -16.194519c-2.7701416 0 -5.116211 0.36361694 -7.038208 1.0908508c-1.9219971 0.7272339 -3.460968 1.8249512 -4.6168823 3.2931519c-1.1559448 1.4613342 -1.9459534 3.2966003 -2.3700256 5.5057373l4.3501587 0.9159241c0.50613403 -2.2091675 1.5184326 -3.8660278 3.0368652 -4.9706116c1.5252991 -1.1114502 3.686676 -1.6671753 6.484192 -1.6671753c1.867279 0 3.4609375 0.26416016 4.7810364 0.79241943c1.3269348 0.5282898 2.3426514 1.3412781 3.0471497 2.4389954c0.7044983 1.0908813 1.0567627 2.500763 1.0567627 4.229645l0 1.3387451l0 0l-13.7378235 2.9320679c-3.529358 0.7409668 -6.0942993 1.8455505 -7.694824 3.3137512c-1.593689 1.4613342 -2.3905334 3.5812988 -2.3905334 6.3599243c0 3.0118408 0.90286255 5.2930603 2.7085876 6.843567c1.8057251 1.5505371 4.4527283 2.3258057 7.9410706 2.3258057c3.7208557 0 6.679077 -0.9673767 8.874664 -2.9020996c2.1955872 -1.9415894 3.5567322 -4.6721497 4.0834045 -8.191711l0.2154541 0l0 7.5227966c0 0.98794556 0.22570801 1.7563477 0.677124 2.3052063c0.45144653 0.54885864 1.1080627 0.8232727 1.9698792 0.8232727l6.8432617 0l0 -3.9208984l-4.9451904 0l0 -18.997406c0 -2.6345215 -0.50616455 -4.78537 -1.5184631 -6.4525146c-1.0054321 -1.6671753 -2.493103 -2.905548 -4.462982 -3.715088c-1.9630432 -0.8095703 -4.3945923 -1.2143555 -7.2946777 -1.2143555z" fill-rule="evenodd"/><path fill="#ffffff" d="m414.47092 327.022c-3.344696 0 -5.9541016 0.8130188 -7.8282166 2.4389954c-1.867279 1.6191406 -2.8009033 3.7768555 -2.8009033 6.473114c0 2.6756897 1.0191345 4.8334045 3.0574036 6.473114c2.038269 1.6328735 5.465027 2.8266296 10.280273 3.5812988c3.358368 0.50772095 5.707855 1.2486572 7.048462 2.2229004c1.3474426 0.9673462 2.0211792 2.3223572 2.0211792 4.064972c0 1.9210205 -0.67715454 3.3823547 -2.031433 4.384033c-1.3542786 1.0016785 -3.2591858 1.5025024 -5.714691 1.5025024c-2.8795776 0 -5.218811 -0.6963806 -7.0176697 -2.0891113c-1.7920532 -1.3927307 -2.8898315 -3.1936646 -3.293396 -5.402832l-4.5348206 0l0 10.620422l4.5348206 0l0 -6.8950195l0.22570801 0c0.2736206 1.3927307 0.8618469 2.6550903 1.764679 3.7871094c0.90286255 1.1251831 2.1237793 2.0239258 3.6627502 2.696289c1.5458069 0.67233276 3.4438477 1.0085144 5.694153 1.0085144c3.638794 0 6.4191895 -0.8507385 8.341187 -2.552185c1.9219971 -1.7083435 2.8829956 -4.071869 2.8829956 -7.090576c0 -2.8609314 -0.9780884 -5.1352844 -2.9342957 -6.8230286c-1.9561768 -1.6877441 -5.2666626 -2.8986511 -9.931427 -3.6327515c-3.296814 -0.5282898 -5.711273 -1.2486572 -7.243408 -2.1611328c-1.5321045 -0.91934204 -2.2981873 -2.1920166 -2.2981873 -3.8179932c0 -1.5368042 0.6121826 -2.7683105 1.8365173 -3.694519c1.2311707 -0.93307495 2.9377136 -1.3995972 5.1195984 -1.3995972c2.7154236 0 4.9110107 0.6826477 6.5867615 2.047943c1.6826172 1.358429 2.7154236 3.1113281 3.0984497 5.2587585l4.5348206 0l0 -10.404327l-4.5348206 0l0 6.833313l-0.22570801 0c-0.23254395 -1.3515625 -0.7387085 -2.5899353 -1.5184326 -3.7151184c-0.7729187 -1.1251526 -1.8809509 -2.0238953 -3.3241577 -2.6962585c-1.4363708 -0.6791992 -3.2557678 -1.0188293 -5.458191 -1.0188293z" fill-rule="evenodd"/><path fill="#ffffff" d="m479.33878 319.4992l9.14505 22.290558l-18.69165 0l9.14505 -22.290558zm-2.7503052 -5.7527466l-17.708344 43.212402l-4.606659 0l0 4.33255l19.986023 0l0 -4.33255l-10.690674 0l4.5134277 -11.00119l22.111542 0l4.513397 11.00119l-10.680389 0l0 4.33255l20.201447 0l0 -4.33255l-4.5655823 0l-17.74939 -43.212402z" fill-rule="evenodd"/><path fill="#ffffff" d="m507.37967 311.33835l0 3.920929l6.9048157 0l0 42.111237l-6.9048157 0l0 3.9208984l18.344452 0l0 -3.9208984l-6.904846 0l0 -46.032166z" fill-rule="evenodd"/><path fill="#ffffff" d="m553.3036 331.0664c2.4349976 0 4.5758667 0.57632446 6.4226074 1.7289124c1.8536377 1.145752 3.293396 2.7203064 4.319397 4.723633c1.0327759 2.0033264 1.5491943 4.3222656 1.5491943 6.956787c0 2.5933533 -0.4993286 4.8951416 -1.4979248 6.9053345c-0.9985962 2.0102234 -2.4213257 3.5847473 -4.2680664 4.723633c-1.8467407 1.1388855 -4.0217896 1.708313 -6.5252075 1.708313c-2.5444336 0 -4.73999 -0.5694275 -6.586731 -1.708313c-1.8468018 -1.1388855 -3.2660522 -2.703125 -4.2578125 -4.692749c-0.9849243 -1.989624 -1.477417 -4.2810974 -1.477417 -6.874481c0 -2.6345215 0.5027466 -4.963745 1.5081787 -6.9876404c1.0123291 -2.0239258 2.4418335 -3.6087646 4.288574 -4.7545166c1.8467407 -1.1525879 4.0218506 -1.7289124 6.5252075 -1.7289124zm0.9746704 -4.0752563c-2.4760132 0 -4.6134644 0.48025513 -6.4123535 1.4407349c-1.7988281 0.9536438 -3.2454834 2.216034 -4.3398438 3.78714c-1.0875244 1.571106 -1.819397 3.2828674 -2.1956177 5.135254l-0.22570801 0l0 -9.735382l-11.254944 0l0 3.920929l6.720154 0l0 39.10623l-6.720154 0l0 3.9208984l17.841736 0l0 -3.9208984l-6.586792 0l0 -15.438232l0 0c1.3930054 2.0952148 3.130371 3.7217102 5.211975 4.879547c2.2024536 1.2211914 4.6887207 1.8318176 7.4588623 1.8318176c3.3446655 0 6.248169 -0.7409668 8.71051 -2.2229004c2.4691772 -1.4887695 4.3877563 -3.550415 5.7557373 -6.1849365c1.367981 -2.6345215 2.051941 -5.646393 2.051941 -9.035614c0 -2.552185 -0.39672852 -4.891693 -1.1901245 -7.018524c-0.7866211 -2.1336975 -1.8878174 -3.982666 -3.30365 -5.546936c-1.4158325 -1.571106 -3.1018677 -2.782013 -5.0580444 -3.6327515c-1.9562378 -0.857605 -4.110779 -1.286377 -6.463684 -1.286377z" fill-rule="evenodd"/><path fill="#ffffff" d="m575.11194 311.33835l0 3.920929l6.7509155 0l0 42.111237l-6.7509155 0l0 3.9208984l17.246643 0l0 -3.9208984l-5.9609375 0l0 -12.174377c0 -3.0118713 0.5198364 -5.5881042 1.5595093 -7.7286377c1.0396118 -2.140564 2.4418335 -3.773407 4.206482 -4.89859c1.7647095 -1.1251526 3.751648 -1.6877136 5.9609375 -1.6877136c2.6264648 0 4.55188 0.7786865 5.776245 2.3360596c1.2311401 1.5574036 1.8467407 3.708252 1.8467407 6.452545l0 17.700714l-5.919861 0l0 3.9208984l16.887573 0l0 -3.9208984l-6.4226074 0l0 -18.431396c0 -3.8145752 -0.86187744 -6.774994 -2.5855103 -8.881226c-1.7236328 -2.1062622 -4.4151 -3.1593628 -8.074402 -3.1593628c-2.3323975 0 -4.401428 0.4527893 -6.2071533 1.358429c-1.8057251 0.90560913 -3.293396 2.219452 -4.4630127 3.9414978c-1.1627808 1.7151794 -1.9561768 3.8042603 -2.380249 6.267273l-0.18469238 0l0 -27.12738z" fill-rule="evenodd"/><path fill="#ffffff" d="m646.03296 343.18567c-7.9345703E-4 3.180481 -0.54797363 5.8539734 -1.6416016 8.020477c-1.0943604 2.1679688 -2.599121 3.8111267 -4.514282 4.9294434c-1.9083252 1.1182861 -4.069702 1.6774292 -6.484131 1.6774292c-2.1887817 0 -3.85083 -0.4562378 -4.986267 -1.3687134c-1.12854 -0.91934204 -1.6928711 -2.3086243 -1.6928711 -4.1679077c0 -1.7014465 0.50616455 -3.0221558 1.5184326 -3.9620667c1.019165 -0.9399109 2.5615845 -1.6500244 4.6271973 -2.130249l13.173523 -2.998413zm-8.926025 -16.194519c-2.7701416 0 -5.11615 0.36361694 -7.038147 1.0908508c-1.9219971 0.7272339 -3.4609985 1.8249512 -4.6169434 3.2931519c-1.1558838 1.4613342 -1.9459229 3.2966003 -2.369995 5.5057373l4.3501587 0.9159241c0.50616455 -2.2091675 1.5184326 -3.8660278 3.0368652 -4.9706116c1.5252686 -1.1114502 3.6867065 -1.6671753 6.484192 -1.6671753c1.8672485 0 3.4609375 0.26416016 4.781067 0.79241943c1.3269043 0.5282898 2.3426514 1.3412781 3.0471191 2.4389954c0.7045288 1.0908813 1.0567627 2.500763 1.0567627 4.229645l0 1.3387451l-13.737793 2.9320679c-3.529358 0.7409668 -6.0942993 1.8455505 -7.694824 3.3137512c-1.593689 1.4613342 -2.390564 3.5812988 -2.390564 6.3599243c0 3.0118408 0.90289307 5.2930603 2.7086182 6.843567c1.8057251 1.5505371 4.4526978 2.3258057 7.94104 2.3258057c3.7208862 0 6.679077 -0.9673767 8.874695 -2.9020996c2.1955566 -1.9415894 3.5567017 -4.6721497 4.083374 -8.191711l0.2154541 0l0 7.5227966c0 0.98794556 0.22570801 1.7563477 0.677124 2.3052063c0.45147705 0.54885864 1.1080933 0.8232727 1.9699097 0.8232727l6.8432617 0l0 -3.9208984l-4.9452515 0l0 -18.997406c0 -2.6345215 -0.5061035 -4.78537 -1.5184326 -6.4525146c-1.0054321 -1.6671753 -2.493103 -2.905548 -4.4629517 -3.715088c-1.9630737 -0.8095703 -4.3946533 -1.2143555 -7.294739 -1.2143555z" fill-rule="evenodd"/><path stroke="#ffffff" stroke-width="1.0" stroke-linejoin="round" stroke-linecap="butt" d="m262.2619 331.0973c2.4828796 0 4.6066284 0.55914307 6.3713074 1.6774597c1.764679 1.1182861 3.125824 2.6516724 4.0834045 4.600128c0.7470093 1.519989 1.2026367 3.2111511 1.3669128 5.073517l-23.83429 0c0.20062256 -1.7953186 0.6652374 -3.4213257 1.3938141 -4.8779907c1.0122986 -2.0170593 2.4315643 -3.5984497 4.2578125 -4.7442017c1.8262177 -1.1526184 3.946579 -1.7289124 6.361038 -1.7289124zm-63.820404 -17.35083l0 4.3325806l4.6374054 0l17.523682 43.21237l5.2940216 0l17.523682 -43.21237l4.6271515 0l0 -4.3325806l-20.447708 0l0 4.3325806l11.213913 0l-15.300278 37.747803l-0.18896484 0l-15.300293 -37.747803l11.224182 0l0 -4.3325806zm63.820404 13.275543c-3.3378296 0 -6.2618713 0.74783325 -8.772079 2.2434692c-2.5102234 1.495636 -4.4664154 3.56073 -5.8685913 6.1952515c-1.3953247 2.6345215 -2.092987 5.67041 -2.092987 9.1076355c0 3.3960876 0.6942291 6.394226 2.0827332 8.994446c1.3884888 2.6002197 3.351532 4.637848 5.889099 6.112915c2.5444183 1.4750671 5.550522 2.2125854 9.018326 2.2125854c3.631958 0 6.8090515 -0.85757446 9.531311 -2.5727844c2.7222595 -1.7151794 4.7023926 -4.061554 5.940399 -7.0391235l-4.2783203 -1.6054077c-0.9507446 2.1679993 -2.3973694 3.8797607 -4.3398743 5.1352844c-1.9425049 1.2554932 -4.237274 1.8832703 -6.884308 1.8832703c-2.544403 0 -4.743408 -0.5591736 -6.5970154 -1.6774597c-1.846756 -1.1182861 -3.2694397 -2.6619568 -4.268051 -4.631012c-0.8093262 -1.606781 -1.2884216 -3.4145813 -1.4373169 -5.423401l28.37944 0c0.041046143 -0.16467285 0.064971924 -0.36361694 0.07180786 -0.5968933c0.013671875 -0.23327637 0.02053833 -0.54885864 0.02053833 -0.94677734c0 -3.4166565 -0.66348267 -6.431946 -1.9904175 -9.045898c-1.3200684 -2.6139526 -3.2113037 -4.6584473 -5.673645 -6.1335144c-2.4554749 -1.4750366 -5.3658447 -2.2125854 -8.731049 -2.2125854z" fill-rule="evenodd"/><path stroke="#ffffff" stroke-width="1.0" stroke-linejoin="round" stroke-linecap="butt" d="m307.24234 327.11462c-1.9972534 0 -3.7380066 0.4390869 -5.222229 1.3172607c-1.477417 0.8713379 -2.6777954 2.1131287 -3.6011658 3.7254028c-0.9234009 1.6122742 -1.532135 3.5367126 -1.8262634 5.7733154l-0.22570801 0l0 -10.311707l-11.439636 0l0 3.920929l6.9048157 0l0 25.830688l-6.9048157 0l0 3.9208984l17.995636 0l0 -3.9208984l-6.5559998 0l0 -12.071472c0 -4.137024 0.9336548 -7.3684387 2.8009338 -9.694244c1.874115 -2.3257751 4.367218 -3.488678 7.4793396 -3.488678c0.4993286 0 0.9644165 0.030883789 1.3953247 0.09262085c0.43093872 0.06173706 0.8378906 0.14407349 1.2209167 0.24697876l0 -5.145569c-0.3624878 -0.068603516 -0.69766235 -0.116607666 -1.0054321 -0.14407349c-0.30096436 -0.034301758 -0.63952637 -0.051452637 -1.0157166 -0.051452637z" fill-rule="evenodd"/><path stroke="#ffffff" stroke-width="1.0" stroke-linejoin="round" stroke-linecap="butt" d="m319.98007 313.42746l0 6.040863l5.7967834 0l0 -6.040863zm-5.960907 14.191437l0 3.920929l6.8022156 0l0 25.830688l-6.8022156 0l0 3.9208984l17.810944 0l0 -3.9208984l-6.4636536 0l0 -29.751617z" fill-rule="evenodd"/><path stroke="#ffffff" stroke-width="1.0" stroke-linejoin="round" stroke-linecap="butt" d="m341.09018 319.08755l0 8.531342l-5.981415 0l0 3.920929l5.981415 0l-0.030761719 20.839508c0 1.9758911 0.30438232 3.6704712 0.91311646 5.0838013c0.60873413 1.4132996 1.5423889 2.504181 2.8009033 3.272583c1.2653809 0.7684021 2.8761597 1.1525879 4.832367 1.1525879c1.9082947 0 3.471222 -0.37390137 4.68869 -1.1217346c1.2243347 -0.74780273 2.1340332 -1.8318176 2.7290955 -3.2519836c0.6018982 -1.420166 0.90286255 -3.142212 0.90286255 -5.1661377l0 -3.0976257l-4.1039124 0l0 3.1285095c0 1.7288818 -0.34539795 3.053009 -1.0362244 3.972351c-0.6908264 0.9124756 -1.7202148 1.3687134 -3.0881958 1.3687134c-1.3884888 0 -2.4178772 -0.44595337 -3.0881653 -1.3378296c-0.6703186 -0.8987732 -1.0054626 -2.2331848 -1.0054626 -4.003235l0.030761719 -20.839508l11.819244 0l0.030792236 -3.920929l-11.850037 0l0 -8.531342z" fill-rule="evenodd"/><path stroke="#ffffff" stroke-width="1.0" stroke-linejoin="round" stroke-linecap="butt" d="m388.34143 343.18567c-7.324219E-4 3.180481 -0.5479431 5.8539734 -1.6415405 8.020477c-1.0943909 2.1679688 -2.5991516 3.8111267 -4.5143127 4.9294434c-1.9082947 1.1182861 -4.069702 1.6774292 -6.4841614 1.6774292c-2.1887512 0 -3.85083 -0.4562378 -4.9862366 -1.3687134c-1.1285706 -0.91934204 -1.6928711 -2.3086243 -1.6928711 -4.1679077c0 -1.7014465 0.50616455 -3.0221558 1.5184631 -3.9620667c1.0191345 -0.9399109 2.5615234 -1.6500244 4.627136 -2.130249l13.173523 -2.998413zm-8.925964 -16.194519c-2.7701416 0 -5.116211 0.36361694 -7.038208 1.0908508c-1.9219971 0.7272339 -3.460968 1.8249512 -4.6168823 3.2931519c-1.1559448 1.4613342 -1.9459534 3.2966003 -2.3700256 5.5057373l4.3501587 0.9159241c0.50613403 -2.2091675 1.5184326 -3.8660278 3.0368652 -4.9706116c1.5252991 -1.1114502 3.686676 -1.6671753 6.484192 -1.6671753c1.867279 0 3.4609375 0.26416016 4.7810364 0.79241943c1.3269348 0.5282898 2.3426514 1.3412781 3.0471497 2.4389954c0.7044983 1.0908813 1.0567627 2.500763 1.0567627 4.229645l0 1.3387451l0 0l-13.7378235 2.9320679c-3.529358 0.7409668 -6.0942993 1.8455505 -7.694824 3.3137512c-1.593689 1.4613342 -2.3905334 3.5812988 -2.3905334 6.3599243c0 3.0118408 0.90286255 5.2930603 2.7085876 6.843567c1.8057251 1.5505371 4.4527283 2.3258057 7.9410706 2.3258057c3.7208557 0 6.679077 -0.9673767 8.874664 -2.9020996c2.1955872 -1.9415894 3.5567322 -4.6721497 4.0834045 -8.191711l0.2154541 0l0 7.5227966c0 0.98794556 0.22570801 1.7563477 0.677124 2.3052063c0.45144653 0.54885864 1.1080627 0.8232727 1.9698792 0.8232727l6.8432617 0l0 -3.9208984l-4.9451904 0l0 -18.997406c0 -2.6345215 -0.50616455 -4.78537 -1.5184631 -6.4525146c-1.0054321 -1.6671753 -2.493103 -2.905548 -4.462982 -3.715088c-1.9630432 -0.8095703 -4.3945923 -1.2143555 -7.2946777 -1.2143555z" fill-rule="evenodd"/><path stroke="#ffffff" stroke-width="1.0" stroke-linejoin="round" stroke-linecap="butt" d="m414.47092 327.022c-3.344696 0 -5.9541016 0.8130188 -7.8282166 2.4389954c-1.867279 1.6191406 -2.8009033 3.7768555 -2.8009033 6.473114c0 2.6756897 1.0191345 4.8334045 3.0574036 6.473114c2.038269 1.6328735 5.465027 2.8266296 10.280273 3.5812988c3.358368 0.50772095 5.707855 1.2486572 7.048462 2.2229004c1.3474426 0.9673462 2.0211792 2.3223572 2.0211792 4.064972c0 1.9210205 -0.67715454 3.3823547 -2.031433 4.384033c-1.3542786 1.0016785 -3.2591858 1.5025024 -5.714691 1.5025024c-2.8795776 0 -5.218811 -0.6963806 -7.0176697 -2.0891113c-1.7920532 -1.3927307 -2.8898315 -3.1936646 -3.293396 -5.402832l-4.5348206 0l0 10.620422l4.5348206 0l0 -6.8950195l0.22570801 0c0.2736206 1.3927307 0.8618469 2.6550903 1.764679 3.7871094c0.90286255 1.1251831 2.1237793 2.0239258 3.6627502 2.696289c1.5458069 0.67233276 3.4438477 1.0085144 5.694153 1.0085144c3.638794 0 6.4191895 -0.8507385 8.341187 -2.552185c1.9219971 -1.7083435 2.8829956 -4.071869 2.8829956 -7.090576c0 -2.8609314 -0.9780884 -5.1352844 -2.9342957 -6.8230286c-1.9561768 -1.6877441 -5.2666626 -2.8986511 -9.931427 -3.6327515c-3.296814 -0.5282898 -5.711273 -1.2486572 -7.243408 -2.1611328c-1.5321045 -0.91934204 -2.2981873 -2.1920166 -2.2981873 -3.8179932c0 -1.5368042 0.6121826 -2.7683105 1.8365173 -3.694519c1.2311707 -0.93307495 2.9377136 -1.3995972 5.1195984 -1.3995972c2.7154236 0 4.9110107 0.6826477 6.5867615 2.047943c1.6826172 1.358429 2.7154236 3.1113281 3.0984497 5.2587585l4.5348206 0l0 -10.404327l-4.5348206 0l0 6.833313l-0.22570801 0c-0.23254395 -1.3515625 -0.7387085 -2.5899353 -1.5184326 -3.7151184c-0.7729187 -1.1251526 -1.8809509 -2.0238953 -3.3241577 -2.6962585c-1.4363708 -0.6791992 -3.2557678 -1.0188293 -5.458191 -1.0188293z" fill-rule="evenodd"/><path stroke="#ffffff" stroke-width="1.0" stroke-linejoin="round" stroke-linecap="butt" d="m479.33878 319.4992l9.14505 22.290558l-18.69165 0l9.14505 -22.290558zm-2.7503052 -5.7527466l-17.708344 43.212402l-4.606659 0l0 4.33255l19.986023 0l0 -4.33255l-10.690674 0l4.5134277 -11.00119l22.111542 0l4.513397 11.00119l-10.680389 0l0 4.33255l20.201447 0l0 -4.33255l-4.5655823 0l-17.74939 -43.212402z" fill-rule="evenodd"/><path stroke="#ffffff" stroke-width="1.0" stroke-linejoin="round" stroke-linecap="butt" d="m507.37967 311.33835l0 3.920929l6.9048157 0l0 42.111237l-6.9048157 0l0 3.9208984l18.344452 0l0 -3.9208984l-6.904846 0l0 -46.032166z" fill-rule="evenodd"/><path stroke="#ffffff" stroke-width="1.0" stroke-linejoin="round" stroke-linecap="butt" d="m553.3036 331.0664c2.4349976 0 4.5758667 0.57632446 6.4226074 1.7289124c1.8536377 1.145752 3.293396 2.7203064 4.319397 4.723633c1.0327759 2.0033264 1.5491943 4.3222656 1.5491943 6.956787c0 2.5933533 -0.4993286 4.8951416 -1.4979248 6.9053345c-0.9985962 2.0102234 -2.4213257 3.5847473 -4.2680664 4.723633c-1.8467407 1.1388855 -4.0217896 1.708313 -6.5252075 1.708313c-2.5444336 0 -4.73999 -0.5694275 -6.586731 -1.708313c-1.8468018 -1.1388855 -3.2660522 -2.703125 -4.2578125 -4.692749c-0.9849243 -1.989624 -1.477417 -4.2810974 -1.477417 -6.874481c0 -2.6345215 0.5027466 -4.963745 1.5081787 -6.9876404c1.0123291 -2.0239258 2.4418335 -3.6087646 4.288574 -4.7545166c1.8467407 -1.1525879 4.0218506 -1.7289124 6.5252075 -1.7289124zm0.9746704 -4.0752563c-2.4760132 0 -4.6134644 0.48025513 -6.4123535 1.4407349c-1.7988281 0.9536438 -3.2454834 2.216034 -4.3398438 3.78714c-1.0875244 1.571106 -1.819397 3.2828674 -2.1956177 5.135254l-0.22570801 0l0 -9.735382l-11.254944 0l0 3.920929l6.720154 0l0 39.10623l-6.720154 0l0 3.9208984l17.841736 0l0 -3.9208984l-6.586792 0l0 -15.438232l0 0c1.3930054 2.0952148 3.130371 3.7217102 5.211975 4.879547c2.2024536 1.2211914 4.6887207 1.8318176 7.4588623 1.8318176c3.3446655 0 6.248169 -0.7409668 8.71051 -2.2229004c2.4691772 -1.4887695 4.3877563 -3.550415 5.7557373 -6.1849365c1.367981 -2.6345215 2.051941 -5.646393 2.051941 -9.035614c0 -2.552185 -0.39672852 -4.891693 -1.1901245 -7.018524c-0.7866211 -2.1336975 -1.8878174 -3.982666 -3.30365 -5.546936c-1.4158325 -1.571106 -3.1018677 -2.782013 -5.0580444 -3.6327515c-1.9562378 -0.857605 -4.110779 -1.286377 -6.463684 -1.286377z" fill-rule="evenodd"/><path stroke="#ffffff" stroke-width="1.0" stroke-linejoin="round" stroke-linecap="butt" d="m575.11194 311.33835l0 3.920929l6.7509155 0l0 42.111237l-6.7509155 0l0 3.9208984l17.246643 0l0 -3.9208984l-5.9609375 0l0 -12.174377c0 -3.0118713 0.5198364 -5.5881042 1.5595093 -7.7286377c1.0396118 -2.140564 2.4418335 -3.773407 4.206482 -4.89859c1.7647095 -1.1251526 3.751648 -1.6877136 5.9609375 -1.6877136c2.6264648 0 4.55188 0.7786865 5.776245 2.3360596c1.2311401 1.5574036 1.8467407 3.708252 1.8467407 6.452545l0 17.700714l-5.919861 0l0 3.9208984l16.887573 0l0 -3.9208984l-6.4226074 0l0 -18.431396c0 -3.8145752 -0.86187744 -6.774994 -2.5855103 -8.881226c-1.7236328 -2.1062622 -4.4151 -3.1593628 -8.074402 -3.1593628c-2.3323975 0 -4.401428 0.4527893 -6.2071533 1.358429c-1.8057251 0.90560913 -3.293396 2.219452 -4.4630127 3.9414978c-1.1627808 1.7151794 -1.9561768 3.8042603 -2.380249 6.267273l-0.18469238 0l0 -27.12738z" fill-rule="evenodd"/><path stroke="#ffffff" stroke-width="1.0" stroke-linejoin="round" stroke-linecap="butt" d="m646.03296 343.18567c-7.9345703E-4 3.180481 -0.54797363 5.8539734 -1.6416016 8.020477c-1.0943604 2.1679688 -2.599121 3.8111267 -4.514282 4.9294434c-1.9083252 1.1182861 -4.069702 1.6774292 -6.484131 1.6774292c-2.1887817 0 -3.85083 -0.4562378 -4.986267 -1.3687134c-1.12854 -0.91934204 -1.6928711 -2.3086243 -1.6928711 -4.1679077c0 -1.7014465 0.50616455 -3.0221558 1.5184326 -3.9620667c1.019165 -0.9399109 2.5615845 -1.6500244 4.6271973 -2.130249l13.173523 -2.998413zm-8.926025 -16.194519c-2.7701416 0 -5.11615 0.36361694 -7.038147 1.0908508c-1.9219971 0.7272339 -3.4609985 1.8249512 -4.6169434 3.2931519c-1.1558838 1.4613342 -1.9459229 3.2966003 -2.369995 5.5057373l4.3501587 0.9159241c0.50616455 -2.2091675 1.5184326 -3.8660278 3.0368652 -4.9706116c1.5252686 -1.1114502 3.6867065 -1.6671753 6.484192 -1.6671753c1.8672485 0 3.4609375 0.26416016 4.781067 0.79241943c1.3269043 0.5282898 2.3426514 1.3412781 3.0471191 2.4389954c0.7045288 1.0908813 1.0567627 2.500763 1.0567627 4.229645l0 1.3387451l-13.737793 2.9320679c-3.529358 0.7409668 -6.0942993 1.8455505 -7.694824 3.3137512c-1.593689 1.4613342 -2.390564 3.5812988 -2.390564 6.3599243c0 3.0118408 0.90289307 5.2930603 2.7086182 6.843567c1.8057251 1.5505371 4.4526978 2.3258057 7.94104 2.3258057c3.7208862 0 6.679077 -0.9673767 8.874695 -2.9020996c2.1955566 -1.9415894 3.5567017 -4.6721497 4.083374 -8.191711l0.2154541 0l0 7.5227966c0 0.98794556 0.22570801 1.7563477 0.677124 2.3052063c0.45147705 0.54885864 1.1080933 0.8232727 1.9699097 0.8232727l6.8432617 0l0 -3.9208984l-4.9452515 0l0 -18.997406c0 -2.6345215 -0.5061035 -4.78537 -1.5184326 -6.4525146c-1.0054321 -1.6671753 -2.493103 -2.905548 -4.4629517 -3.715088c-1.9630737 -0.8095703 -4.3946533 -1.2143555 -7.294739 -1.2143555z" fill-rule="evenodd"/><path fill="#ffffff" d="m56.06407 272.02313l12.314964 -12.283447l12.314957 12.283447l-12.314957 12.283478z" fill-rule="evenodd"/><path stroke="#ffffff" stroke-width="1.0" stroke-linejoin="round" stroke-linecap="butt" d="m56.06407 272.02313l12.314964 -12.283447l12.314957 12.283447l-12.314957 12.283478z" fill-rule="evenodd"/><path fill="#ffffff" d="m107.6693 399.97687l12.314964 -12.283478l12.314964 12.283478l-12.314964 12.283447z" fill-rule="evenodd"/><path stroke="#ffffff" stroke-width="1.0" stroke-linejoin="round" stroke-linecap="butt" d="m107.6693 399.97687l12.314964 -12.283478l12.314964 12.283478l-12.314964 12.283447z" fill-rule="evenodd"/><path fill="#ffffff" d="m17.751945 362.47958l12.3149605 -12.283447l12.3149605 12.283447l-12.3149605 12.283478z" fill-rule="evenodd"/><path stroke="#ffffff" stroke-width="1.0" stroke-linejoin="round" stroke-linecap="butt" d="m17.751945 362.47958l12.3149605 -12.283447l12.3149605 12.283447l-12.3149605 12.283478z" fill-rule="evenodd"/><path fill="#ffffff" d="m147.19478 310.3099l12.314972 -12.283478l12.314957 12.283478l-12.314957 12.283447z" fill-rule="evenodd"/><path stroke="#ffffff" stroke-width="1.0" stroke-linejoin="round" stroke-linecap="butt" d="m147.19478 310.3099l12.314972 -12.283478l12.314957 12.283478l-12.314957 12.283447z" fill-rule="evenodd"/><path fill="#ffffff" d="m107.80843 323.4207l12.314964 -12.283478l51.527557 51.08661l-12.314957 12.283478z" fill-rule="evenodd"/><path stroke="#ffffff" stroke-width="1.0" stroke-linejoin="round" stroke-linecap="butt" d="m107.80843 323.4207l12.314964 -12.283478l51.527557 51.08661l-12.314957 12.283478z" fill-rule="evenodd"/><path fill="#ffffff" d="m16.673878 310.3101l12.3149605 -12.283478l51.527557 51.08661l-12.314957 12.283478z" fill-rule="evenodd"/><path stroke="#ffffff" stroke-width="1.0" stroke-linejoin="round" stroke-linecap="butt" d="m16.673878 310.3101l12.3149605 -12.283478l51.527557 51.08661l-12.314957 12.283478z" fill-rule="evenodd"/><path fill="#ffffff" d="m119.85164 259.94058l12.314957 12.283478l-51.52755 51.08661l-12.314964 -12.283478z" fill-rule="evenodd"/><path stroke="#ffffff" stroke-width="1.0" stroke-linejoin="round" stroke-linecap="butt" d="m119.85164 259.94058l12.314957 12.283478l-51.52755 51.08661l-12.314964 -12.283478z" fill-rule="evenodd"/><path fill="#ffffff" d="m107.635376 348.8314l12.314957 12.283478l-51.527557 51.08661l-12.3149605 -12.283447z" fill-rule="evenodd"/><path stroke="#ffffff" stroke-width="1.0" stroke-linejoin="round" stroke-linecap="butt" d="m107.635376 348.8314l12.314957 12.283478l-51.527557 51.08661l-12.3149605 -12.283447z" fill-rule="evenodd"/><path fill="#004225" d="m404.38968 359.59943c0.14230347 0 0.24630737 0.020080566 0.31195068 0.060272217c0.06588745 0.03994751 0.098846436 0.10610962 0.098846436 0.19845581c0 0.09768677 -0.02947998 0.16778564 -0.08847046 0.21026611c-0.05871582 0.042236328 -0.15539551 0.06335449 -0.29000854 0.06335449l-0.31158447 0l0 -0.53234863zm0.045013428 0.7086487c0.13769531 0 0.24127197 0.023651123 0.31079102 0.07098389c0.069732666 0.047302246 0.10461426 0.12133789 0.10461426 0.22207642c0 0.10687256 -0.033081055 0.18585205 -0.099243164 0.23699951c-0.06616211 0.051116943 -0.16616821 0.076690674 -0.3000183 0.076690674l-0.34042358 0l0 -0.6067505zm-0.24578857 -1.1207886l0 0.23239136l-0.290802 0l0 1.6737366l0.290802 0l0 0.2484436l0.15115356 0l0 -0.2484436l0.16268921 0l0 0.2484436l0.15118408 0l0 -0.2598877c0.13076782 -0.022125244 0.23397827 -0.07223511 0.30963135 -0.1503601c0.07589722 -0.07833862 0.113861084 -0.1831665 0.113861084 -0.31445312c0 -0.10760498 -0.02999878 -0.1954956 -0.08999634 -0.26367188c-0.060028076 -0.06845093 -0.15618896 -0.114105225 -0.28851318 -0.13699341l0 -0.011474609c0.103881836 -0.019073486 0.18322754 -0.061035156 0.23809814 -0.12591553c0.055145264 -0.06488037 0.08270264 -0.14654541 0.08270264 -0.24499512c0 -0.11526489 -0.030639648 -0.2041626 -0.091918945 -0.26675415c-0.061035156 -0.06259155 -0.15231323 -0.10494995 -0.27386475 -0.1270752l0 -0.25299072l-0.15118408 0l0 0.236969c-0.020751953 -0.0015258789 -0.041015625 -0.0026855469 -0.060760498 -0.0034484863c-0.019500732 -7.6293945E-4 -0.040374756 -0.0011291504 -0.062683105 -0.0011291504l-0.039245605 0l0 -0.23239136z" fill-rule="evenodd"/></g></svg>